#tb 0: 1/25
#media_type 0: video
#codec_id 0: rawvideo
#dimensions 0: 1280x720
#sar 0: 0/1
0,          0,          0,        1,  2764800, 0xf5c0992c
0,          1,          1,        1,  2764800, 0xcc261f2e
0,          2,          2,        1,  2764800, 0x56496969
0,          3,          3,        1,  2764800, 0xfd0eb783
0,          4,          4,        1,  2764800, 0x7c81fcbb
0,          5,          5,        1,  2764800, 0x99e6bf0a
0,          6,          6,        1,  2764800, 0x9fa8d07f
0,          7,          7,        1,  2764800, 0x3dc9d2e6
